<?xml version="1.0" standalone="no"?>
<!DOCTYPE svg PUBLIC "-//W3C//DTD SVG 20010904//EN"
 "http://www.w3.org/TR/2001/REC-SVG-20010904/DTD/svg10.dtd">
<svg version="1.0" xmlns="http://www.w3.org/2000/svg"
 width="772.000000pt" height="772.000000pt" viewBox="0 0 772.000000 772.000000"
 preserveAspectRatio="xMidYMid meet">
<metadata>
Created by potrace 1.11, written by Peter Selinger 2001-2013
</metadata>
<g transform="translate(0.000000,772.000000) scale(0.100000,-0.100000)"
fill="#000000" stroke="none">
<path d="M3628 7715 c-1 -2 -37 -6 -78 -9 -118 -8 -160 -13 -240 -25 -41 -6
-88 -13 -105 -15 -28 -4 -164 -32 -210 -43 -11 -3 -27 -6 -35 -7 -9 -1 -20 -5
-25 -8 -6 -3 -28 -9 -50 -13 -22 -5 -42 -9 -45 -10 -3 -1 -25 -7 -50 -14 -73
-20 -311 -102 -369 -128 -29 -12 -60 -23 -67 -23 -8 0 -14 -4 -14 -8 0 -5 -6
-9 -12 -9 -16 0 -235 -107 -348 -169 -106 -58 -345 -214 -454 -296 -183 -139
-427 -366 -565 -528 -35 -41 -67 -77 -71 -80 -4 -3 -51 -63 -104 -135 -54 -71
-103 -137 -110 -145 -7 -9 -16 -22 -19 -30 -4 -8 -25 -42 -47 -75 -107 -165
-217 -371 -299 -565 -18 -41 -36 -84 -41 -95 -9 -23 -22 -55 -26 -70 -2 -5
-15 -41 -29 -80 -15 -38 -28 -77 -30 -85 -2 -8 -12 -44 -23 -80 -41 -133 -90
-341 -107 -450 -28 -192 -31 -211 -42 -336 -9 -107 -10 -518 0 -624 12 -138
18 -195 22 -220 2 -14 7 -45 10 -70 8 -48 12 -70 20 -110 2 -14 7 -38 10 -55
29 -179 159 -591 245 -780 40 -89 136 -281 165 -330 19 -33 38 -67 42 -75 22
-43 68 -115 75 -118 4 -2 8 -8 8 -14 0 -6 11 -26 25 -44 14 -18 25 -37 25 -42
0 -6 3 -12 8 -14 4 -2 30 -34 57 -73 27 -38 55 -77 62 -85 150 -188 210 -256
348 -395 373 -373 821 -666 1315 -860 86 -34 313 -111 350 -120 8 -1 42 -10
75 -19 33 -9 69 -18 80 -20 11 -2 50 -11 86 -19 57 -14 132 -27 299 -53 141
-21 274 -29 520 -29 261 1 345 6 560 36 73 11 89 14 140 24 14 2 40 7 59 10
18 3 49 12 67 20 19 8 37 14 39 15 3 0 6 0 8 1 1 0 11 2 22 3 11 2 47 11 80
20 33 9 67 18 75 21 8 2 28 8 43 14 16 6 33 9 38 5 5 -3 9 0 9 7 0 7 2 10 6 7
4 -5 81 19 157 51 16 6 30 11 33 11 12 0 191 73 203 83 8 7 17 11 20 10 8 -1
251 119 316 157 28 16 57 32 65 36 35 17 226 140 242 156 10 10 21 18 26 18 4
0 20 11 35 25 15 14 27 23 27 19 0 -4 12 5 26 20 15 14 32 26 40 26 7 0 14 4
16 8 2 5 48 46 103 92 141 118 306 278 426 415 24 27 49 54 55 60 6 5 35 42
65 80 30 39 57 71 61 73 5 2 8 10 8 18 0 8 3 14 8 14 4 0 23 24 42 53 19 28
37 54 40 57 5 4 43 62 105 160 80 127 210 370 198 370 -4 0 -3 4 3 8 9 6 19
26 58 115 25 55 97 239 102 257 0 3 3 12 7 20 12 30 66 206 73 235 3 17 13 49
20 73 8 24 12 47 9 52 -3 5 0 12 6 15 5 4 8 13 5 21 -3 7 -2 15 2 18 4 2 9 19
10 37 1 18 7 38 12 44 9 11 13 30 25 110 3 23 7 52 10 65 12 62 19 118 32 260
9 105 9 550 0 645 -4 39 -9 90 -11 115 -5 61 -34 241 -51 320 -8 36 -17 81
-20 100 -3 19 -13 58 -21 86 -8 28 -17 62 -20 75 -9 40 -12 54 -14 54 -1 0 -3
7 -5 15 -9 42 -109 329 -124 358 -5 9 -19 42 -31 72 -26 63 -131 283 -139 290
-3 3 -17 28 -30 55 -12 28 -36 69 -52 93 -16 24 -29 45 -29 48 0 7 -85 136
-155 234 -65 91 -65 92 -121 160 -20 25 -53 65 -73 90 -76 94 -260 284 -372
385 -116 104 -360 295 -378 295 -5 0 -14 6 -20 14 -10 12 -136 93 -271 174
-89 53 -490 242 -513 242 -3 0 -22 8 -43 17 -22 9 -43 18 -49 19 -5 1 -35 11
-65 22 -104 37 -426 122 -519 137 -14 2 -41 6 -59 9 -18 3 -50 8 -70 11 -21 3
-47 7 -57 9 -18 3 -71 9 -200 23 -51 5 -552 13 -557 8z"/>
</g>
</svg>
